<svg width="37" height="37" viewBox="0 0 37 37" fill="none" xmlns="http://www.w3.org/2000/svg">
<path d="M6.475 0C2.886 0 0 2.886 0 6.475V30.525C0 34.114 2.886 37 6.475 37H25.9L37 25.9V6.475C37 2.886 34.114 0 30.525 0H6.475ZM6.9375 3.7H30.0625C30.9211 3.7 31.7446 4.04109 32.3518 4.64824C32.9589 5.25539 33.3 6.07886 33.3 6.9375V24.05H30.525C26.936 24.05 24.05 26.936 24.05 30.525V33.3H6.9375C6.07886 33.3 5.25539 32.9589 4.64824 32.3518C4.04109 31.7446 3.7 30.9211 3.7 30.0625V6.9375C3.7 6.07886 4.04109 5.25539 4.64824 4.64824C5.25539 4.04109 6.07886 3.7 6.9375 3.7V3.7ZM23.014 8.8245C22.718 8.8245 22.422 8.8615 22.1445 8.9355C20.4055 9.4165 19.425 11.1925 19.869 12.95C19.9615 13.2275 20.091 13.505 20.2575 13.764L26.233 12.136C26.233 11.8215 26.196 11.507 26.122 11.1925C25.7335 9.805 24.457 8.8245 23.014 8.8245ZM11.4145 12.025C11.1 12.025 10.8225 12.025 10.545 12.1175C8.8245 12.5985 7.807 14.3745 8.2695 16.095C8.325 16.391 8.4915 16.65 8.658 16.946L14.6335 15.318C14.6335 15.0035 14.5965 14.689 14.5225 14.393C14.134 12.95 12.8575 12.025 11.4145 12.025ZM27.232 17.131L10.3415 21.7745C12.7835 24.605 16.65 25.789 20.2575 24.8085C23.865 23.8095 26.566 20.8125 27.232 17.131Z" fill="#607D8B"/>
</svg>
