<?xml version="1.0" encoding="utf-8"?>
<svg xmlns="http://www.w3.org/2000/svg" height="128" width="128" viewBox="0 0 128 128">
  <g>
    <path id="path1" transform="rotate(0,64,64) translate(30,39.1799993515015) scale(2.125,2.125)  " stroke="black" fill="#FFFFFF" d="M21.76001,1.1529551C21.120026,1.1739511 20.490021,1.3009653 19.872009,1.5349741 19.253021,1.7699597 18.688019,2.112001 18.176025,2.5589619 17.493011,3.1989768 17.018005,3.9469631 16.752014,4.7989533 16.485016,5.6529577 16.448029,6.5279582 16.640015,7.4239547L16.800018,8.0629928 16.160004,8.0629928C13.856018,7.9359792 11.680023,7.3969772 9.632019,6.4469645 7.5840149,5.4979894 5.7920227,4.2029445 4.256012,2.5589619 3.7860107,3.7110009 3.7280273,4.853946 4.0800171,5.984989 4.4320068,7.1149948 5.1520081,8.0429733 6.2400208,8.7679498L7.7440186,9.7269962 5.9520264,9.6639459C5.2260132,9.6429498 4.53302,9.5139826 3.8720093,9.2799738 4.0640259,10.345954 4.53302,11.263984 5.2799988,12.030952 6.0270081,12.798958 6.9650269,13.300973 8.0960083,13.534982L10.240021,13.950997 8.0960083,14.527963C7.4560242,14.698984 6.8050232,14.761972 6.1440125,14.719003 6.5920105,15.57197 7.2260132,16.243967 8.0480042,16.737009 8.8690186,17.227001 9.7920227,17.491955 10.81601,17.534984L12.256012,17.568981 11.104004,18.431957C10.122009,19.17799 9.0500183,19.75996 7.8880005,20.175977 6.7250061,20.591993 5.5250244,20.841993 4.2880249,20.927992 6.4430237,21.886976 8.7150269,22.366956 11.104004,22.366956 16.181,22.196974 20.122009,20.570997 22.928009,17.488964 25.733002,14.404977 27.157013,10.878974 27.200012,6.9119919L27.200012,6.2399943 27.167999,5.9509924 27.392029,5.7909582C28.01001,5.3439977 28.576019,4.853946 29.088013,4.3209865 28.512024,4.4899934 27.914001,4.6079743 27.296021,4.6720002L24.896027,4.9279816 27.008026,3.7439599C27.69101,3.3379538 28.256012,2.8149433 28.70401,2.1759658 27.893005,2.517946 27.061005,2.7619648 26.208008,2.9119892L25.952026,2.9749775 25.76001,2.7829609C25.205017,2.2289443 24.587006,1.8189711 23.904022,1.5509653 23.221008,1.2849741 22.507019,1.152955 21.76001,1.1529551z M30.688019,0L30.272003,1.2149668C30.016022,1.9849868 29.621002,2.6779802 29.088013,3.2949853 29.536011,3.1679709 29.973022,3.0079975 30.400024,2.8149433L32,2.1429458 31.008026,3.5839868C30.240021,4.6939728,29.301025,5.6429479,28.192017,6.4319499L28.192017,6.9119919C28.149017,11.134955 26.640015,14.891001 23.664001,18.175976 20.688019,21.461012 16.501007,23.189955 11.104004,23.36 9.4609985,23.36 7.8610229,23.141004 6.3040161,22.702955 4.7460022,22.266004 3.2850037,21.620985 1.9200134,20.767957L0,19.615001 2.2400208,19.870983C2.6880188,19.913952,3.125,19.935985,3.552002,19.935985L3.5840149,19.935985C4.6080017,19.935985 5.6160278,19.80299 6.6080017,19.534984 7.6000061,19.26997 8.53302,18.878979 9.40802,18.366955 8.3410034,18.112011 7.40802,17.626964 6.6080017,16.911999 5.8080139,16.19697 5.2260132,15.327951 4.8640137,14.302987L4.6080017,13.503976 5.7280273,13.695992C4.8320007,13.141 4.1220093,12.409981 3.6000061,11.503975 3.0770264,10.597968 2.8160095,9.612005 2.8160095,8.5429743L2.8160095,7.7110036 3.552002,8.0309494C3.7860107,8.1599787 4.0210266,8.2659967 4.256012,8.3519953 3.4450073,7.3709762 2.9869995,6.261967 2.8800049,5.0239899 2.7730103,3.7869897 3.0500183,2.5919817 3.7120056,1.4399424L4.0640259,0.83197119 4.5440063,1.375001C5.9300232,2.9959736 7.5730286,4.2929714 9.4720154,5.2639802 11.370026,6.2349894 13.397003,6.8149455 15.552002,7.0080002 15.445007,6.0279577 15.563019,5.0879548 15.904022,4.1919582 16.245026,3.2949851 16.779022,2.5059831 17.504028,1.8239761 18.805023,0.71496644 20.277008,0.16394074 21.920013,0.17596483 23.563019,0.18597444 25.013,0.75799628 26.272003,1.8869643 27.445007,1.6309827 28.544006,1.2149668 29.568024,0.63897755z" />
  </g>
</svg>

